# xmcd
#
# Track frame offsets:
# 150
# 18431
# 32174
# 49767
# 66170
# 88181
# 106248
# 122953
# 139169
# 156559
# 171834
#
# Disc length: 2533 seconds
#
#
# Revision: 0
# Processed by: cddbd v1.5.1PL0 Copyright (c) Steve Scherf et al.
# Submitted via: FreeRIP 2.942 
#
DISCID=9b09e30b
DTITLE=Grayson Capps - Love Song For Bobby Long
DYEAR=1900
DGENRE=Blues
TTITLE0=Get Back Up
TTITLE1=If You Knew My Mind
TTITLE2=Slidell
TTITLE3=I Can't Hear You
TTITLE4=Love Song For Bobby Long
TTITLE5=Graveyard
TTITLE6=Mercy
TTITLE7=Washboard Lisa
TTITLE8=Buckshot
TTITLE9=How's I To Know
TTITLE10=I See You
EXTD=
EXTT0=
EXTT1=
EXTT2=
EXTT3=
EXTT4=
EXTT5=
EXTT6=
EXTT7=
EXTT8=
EXTT9=
EXTT10=
PLAYORDER=
